<?xml version="1.0" standalone="no"?><!DOCTYPE svg PUBLIC "-//W3C//DTD SVG 1.1//EN" "http://www.w3.org/Graphics/SVG/1.1/DTD/svg11.dtd"><svg t="1536911732684" class="icon" style="" viewBox="0 0 1024 1024" version="1.1" xmlns="http://www.w3.org/2000/svg" p-id="3244" xmlns:xlink="http://www.w3.org/1999/xlink" width="200" height="200"><defs><style type="text/css"></style></defs><path d="M906.8 226.5c8.4 0 15.2 6.8 15.2 15.2v539.8c0 8.4-6.8 15.2-15.2 15.2H401.4c-3.9 0-7.5-1.5-10.4-4.1L108.8 528.5c-3.9-3.6-4.8-7.9-4.8-10.8 0-2.9 0.7-7.2 4.4-11L384.1 231c2.9-2.9 6.7-4.4 10.7-4.4h512m0-60.1h-512c-19.9 0-39.1 7.9-53.2 22L66 464.2c-30 30-29.2 79 1.8 108L350 836.4c13.9 13 32.3 20.3 51.4 20.3h505.5c41.5 0 75.2-33.7 75.2-75.2V241.7c-0.1-41.5-33.8-75.2-75.3-75.2z" p-id="3245" fill="#d4d4d4"></path><path d="M763.8 681.3c-7.7 0-15.4-2.9-21.2-8.8L464.9 394.9c-11.7-11.7-11.7-30.7 0-42.4s30.7-11.7 42.4 0L785 630c11.7 11.7 11.7 30.7 0 42.4-5.9 5.9-13.5 8.9-21.2 8.9z" p-id="3246" fill="#d4d4d4"></path><path d="M486.2 679.5c-7.7 0-15.4-2.9-21.2-8.8-11.7-11.7-11.7-30.7 0-42.4l277.6-277.6c11.7-11.7 30.7-11.7 42.4 0s11.7 30.7 0 42.4L507.4 670.8c-5.9 5.8-13.6 8.7-21.2 8.7z" p-id="3247" fill="#d4d4d4"></path></svg>