<?xml version="1.0" standalone="no"?><!DOCTYPE svg PUBLIC "-//W3C//DTD SVG 1.1//EN" "http://www.w3.org/Graphics/SVG/1.1/DTD/svg11.dtd"><svg t="1536828007166" class="icon" style="" viewBox="0 0 1024 1024" version="1.1" xmlns="http://www.w3.org/2000/svg" p-id="1667" xmlns:xlink="http://www.w3.org/1999/xlink" width="200" height="200"><defs><style type="text/css"></style></defs><path d="M561.6 193.6s265.6 28.8 384 230.4c0 0 45.12 66.24-52.48 159.36 0 0-123.52 58.24-225.92-47.36 0 0-73.6 73.6-166.4 64 0 0-105.6 3.2-134.4-89.6 0 0-60.8 102.4-179.2 80s-112.96 7.36-127.04-143.36-0.96-16.64-0.96-16.64l104.64-236.8L553.6 179.2l8 14.4z" fill="#BBF2C0" p-id="1668"></path><path d="M804.16 618.88c-38.08 0-90.88-12.16-138.88-65.6-19.84 18.88-67.84 56.64-138.88 64-0.96 0-105.6 11.2-160.64-71.68-27.52 26.56-97.92 82.24-188.8 58.56-14.72-1.6-138.56-20.8-128.96-173.44v-2.24l90.24-218.88C143.04 194.56 162.56 166.4 204.8 166.4h601.6c26.56 0 80.32 14.4 95.36 69.44l73.92 176.32 0.32 1.28c0.32 1.6 6.72 36.48-0.64 76.8-10.24 54.72-41.28 92.8-89.92 110.08-5.76 2.88-35.52 16.96-75.84 18.24-2.24 0.32-3.84 0.32-5.44 0.32z m-138.24-104.64l9.6 11.84c37.12 45.76 81.92 68.16 132.8 66.88 38.08-0.96 65.28-15.68 65.6-15.68l0.96-0.32 0.96-0.32c92.16-32.64 77.12-144.32 75.2-157.12l-73.28-175.36-0.32-0.96c-13.44-50.56-70.4-51.2-70.72-51.2H204.8c-34.56 0-41.92 25.6-41.92 25.92l-0.64 1.6L73.6 434.88c-3.2 56.64 13.76 97.92 50.24 122.88 27.52 18.88 56.32 21.44 56.64 21.44h1.28l1.28 0.32c99.84 26.56 175.04-62.08 175.68-63.04l12.48-14.72 8.96 17.28c43.52 83.84 143.04 73.28 144 73.28 83.2-8.96 132.16-65.28 132.48-65.92l9.28-12.16z" fill="#573733" p-id="1669"></path><path d="M198.4 678.4h624v217.6H198.4z" fill="#BBF2C0" p-id="1670"></path><path d="M200 928c-7.04 0-12.8-5.76-12.8-12.8v-268.8c0-7.04 5.76-12.8 12.8-12.8s12.8 5.76 12.8 12.8v268.8c0 7.04-5.76 12.8-12.8 12.8z" fill="#573733" p-id="1671"></path><path d="M200 929.6c-8 0-14.4-6.4-14.4-14.4v-268.8c0-8 6.4-14.4 14.4-14.4s14.4 6.4 14.4 14.4v268.8c0 8-6.4 14.4-14.4 14.4z m0-294.4c-6.08 0-11.2 5.12-11.2 11.2v268.8c0 6.08 5.12 11.2 11.2 11.2s11.2-5.12 11.2-11.2v-268.8c0-6.08-5.12-11.2-11.2-11.2zM836.8 928c-7.04 0-12.8-5.76-12.8-12.8v-268.8c0-7.04 5.76-12.8 12.8-12.8s12.8 5.76 12.8 12.8v268.8c0 7.04-5.76 12.8-12.8 12.8z" fill="#573733" p-id="1672"></path><path d="M836.8 929.6c-8 0-14.4-6.4-14.4-14.4v-268.8c0-8 6.4-14.4 14.4-14.4s14.4 6.4 14.4 14.4v268.8c0 8-6.4 14.4-14.4 14.4z m0-294.4c-6.08 0-11.2 5.12-11.2 11.2v268.8c0 6.08 5.12 11.2 11.2 11.2s11.2-5.12 11.2-11.2v-268.8c0-6.08-5.12-11.2-11.2-11.2z" fill="#573733" p-id="1673"></path><path d="M200 897.6h649.6v28.8h-649.6z" fill="#573733" p-id="1674"></path><path d="M851.2 928H198.4v-32h652.8v32z m-649.6-3.2h646.4v-25.6H201.6v25.6z" fill="#573733" p-id="1675"></path><path d="M761.6 358.4H262.4c-8 0-14.4-6.4-14.4-14.4s6.4-14.4 14.4-14.4h499.2c8 0 14.4 6.4 14.4 14.4s-6.4 14.4-14.4 14.4z" fill="#573733" p-id="1676"></path><path d="M761.6 360H262.4c-8.96 0-16-7.04-16-16s7.04-16 16-16h499.2c8.96 0 16 7.04 16 16s-7.04 16-16 16z m-499.2-28.8c-7.04 0-12.8 5.76-12.8 12.8s5.76 12.8 12.8 12.8h499.2c7.04 0 12.8-5.76 12.8-12.8s-5.76-12.8-12.8-12.8H262.4z" fill="#573733" p-id="1677"></path></svg>